<svg xmlns="http://www.w3.org/2000/svg" width="20" height="20" viewBox="0 0 20 20">
    <path fill="#5E6073" fill-rule="evenodd" d="M2.069 14.598v2.082H0v-5.525h5.526v2.069h-1.86a6.85 6.85 0 0 0 1.201 1.618 6.853 6.853 0 0 0 4.877 2.02 6.853 6.853 0 0 0 4.877-2.02 6.865 6.865 0 0 0 1.974-4.135h2.08a8.928 8.928 0 0 1-2.591 5.598 8.935 8.935 0 0 1-6.34 2.626 8.936 8.936 0 0 1-6.34-2.626 8.888 8.888 0 0 1-1.335-1.707zm15.244-9.437V3.247h2.069v5.525h-5.526V6.703h1.963a6.848 6.848 0 0 0-1.198-1.613 6.852 6.852 0 0 0-4.877-2.021 6.854 6.854 0 0 0-4.877 2.02 6.86 6.86 0 0 0-1.973 4.136H.814a8.93 8.93 0 0 1 2.59-5.599A8.94 8.94 0 0 1 9.744 1c2.295 0 4.59.876 6.34 2.626.475.475.884.99 1.229 1.535z"/>
</svg>
